<?xml version="1.0" encoding="UTF-8" standalone="no"?>
<!-- Created with Inkscape (http://www.inkscape.org/) -->

<svg
   xmlns:dc="http://purl.org/dc/elements/1.1/"
   xmlns:cc="http://creativecommons.org/ns#"
   xmlns:rdf="http://www.w3.org/1999/02/22-rdf-syntax-ns#"
   xmlns:svg="http://www.w3.org/2000/svg"
   xmlns="http://www.w3.org/2000/svg"
   xmlns:sodipodi="http://sodipodi.sourceforge.net/DTD/sodipodi-0.dtd"
   xmlns:inkscape="http://www.inkscape.org/namespaces/inkscape"
   width="121.31246mm"
   height="121.43327mm"
   viewBox="0 0 121.31246 121.43327"
   version="1.1"
   id="svg450"
   sodipodi:docname="abs-logo2.svg"
   inkscape:version="0.92.4 5da689c313, 2019-01-14">
  <defs
     id="defs444">
    <clipPath
       clipPathUnits="userSpaceOnUse"
       id="clipPath134">
      <path
         d="M 0.457,1.021 H 792 V 1224 H 0.457 Z"
         id="path132"
         inkscape:connector-curvature="0" />
    </clipPath>
  </defs>
  <sodipodi:namedview
     id="base"
     pagecolor="#ffffff"
     bordercolor="#666666"
     borderopacity="1.0"
     inkscape:pageopacity="0.0"
     inkscape:pageshadow="2"
     inkscape:zoom="0.98994949"
     inkscape:cx="-94.684987"
     inkscape:cy="279.43502"
     inkscape:document-units="mm"
     inkscape:current-layer="g128"
     showgrid="false"
     inkscape:window-width="1920"
     inkscape:window-height="1032"
     inkscape:window-x="0"
     inkscape:window-y="48"
     inkscape:window-maximized="0" />
  <metadata
     id="metadata447">
    <rdf:RDF>
      <cc:Work
         rdf:about="">
        <dc:format>image/svg+xml</dc:format>
        <dc:type
           rdf:resource="http://purl.org/dc/dcmitype/StillImage" />
        <dc:title></dc:title>
      </cc:Work>
    </rdf:RDF>
  </metadata>
  <g
     inkscape:label="Layer 1"
     inkscape:groupmode="layer"
     id="layer1"
     transform="translate(-47.152351,-72.300103)">
    <g
       transform="matrix(2.9291841,0,0,-3.2727634,-1829.708,2321.1209)"
       id="g128">
      <g
         transform="translate(616.37061,662.70392)"
         id="g136">
        <path
           inkscape:connector-curvature="0"
           id="path138"
           style="fill:#000000;fill-opacity:1;fill-rule:nonzero;stroke:none"
           d="m 0,0 c -0.397,-0.654 -0.795,-1.308 -1.191,-1.962 -0.076,-0.122 -0.168,-0.239 -0.216,-0.371 -0.152,-0.415 -0.448,-0.483 -0.877,-0.48 -2.781,0.021 -5.563,0.011 -8.344,0.011 h -0.327 c 0.31,-0.521 0.601,-1.011 0.892,-1.499 0.19,-0.319 0.374,-0.642 0.574,-0.955 0.075,-0.117 0.066,-0.2 -0.004,-0.315 -0.51,-0.845 -1.014,-1.692 -1.514,-2.543 -0.06,-0.104 -0.13,-0.136 -0.245,-0.13 -0.139,0.008 -0.277,0.002 -0.416,0.002 -9.236,0 -18.473,0.001 -27.709,-0.004 -0.22,0 -0.352,0.046 -0.467,0.247 -0.473,0.826 -0.969,1.64 -1.465,2.454 -0.071,0.116 -0.042,0.191 0.019,0.291 1.411,2.359 2.819,4.72 4.228,7.081 0.012,0.019 0.02,0.041 0.041,0.089 -0.787,0 -1.554,0.008 -2.321,-0.006 -0.219,-0.004 -0.336,0.057 -0.444,0.244 -0.508,0.875 -1.032,1.741 -1.557,2.606 -0.088,0.143 -0.101,0.251 -0.008,0.407 2.838,4.739 5.67,9.482 8.501,14.225 1.79,2.997 3.584,5.993 5.36,8.998 0.201,0.34 0.418,0.483 0.831,0.467 0.856,-0.033 1.716,-0.028 2.573,-10e-4 0.323,0.011 0.504,-0.133 0.64,-0.359 1.18,-1.967 2.353,-3.938 3.529,-5.908 0.228,-0.381 0.457,-0.762 0.703,-1.172 0.481,0.807 0.947,1.578 1.4,2.357 0.092,0.161 0.193,0.218 0.382,0.216 0.97,-0.01 1.941,-0.01 2.911,0 0.173,0.002 0.26,-0.055 0.343,-0.196 1.669,-2.804 3.343,-5.606 5.016,-8.408 1.79,-2.997 3.581,-5.995 5.37,-8.992 C -2.581,4.366 -1.371,2.338 -0.159,0.312 -0.115,0.237 -0.101,0.137 0,0.101 Z" />
      </g>
      <g
         transform="translate(667.9961,664.8198)"
         id="g140">
        <path
           inkscape:connector-curvature="0"
           id="path142"
           style="fill:#e06c75;fill-opacity:1;fill-rule:nonzero;stroke:none"
           d="m 0,0 c -0.38,0 -0.706,0.002 -1.031,-0.001 -0.108,-0.002 -0.15,0.063 -0.195,0.138 -1.049,1.762 -2.099,3.524 -3.151,5.285 -1.454,2.435 -2.909,4.87 -4.363,7.305 -1.09,1.826 -2.18,3.653 -3.271,5.479 -0.053,0.092 -0.109,0.183 -0.186,0.309 -4.404,-7.374 -8.784,-14.711 -13.182,-22.076 -0.378,0.631 -0.736,1.232 -1.098,1.831 -0.056,0.093 -0.002,0.159 0.04,0.23 1.52,2.543 3.041,5.086 4.559,7.63 1.801,3.015 3.6,6.031 5.399,9.046 1.185,1.986 2.371,3.971 3.557,5.957 0.042,0.071 0.091,0.137 0.16,0.24 C -8.505,14.244 -4.265,7.142 0,0" />
      </g>
      <g
         transform="translate(678.4775,659.4336)"
         id="g144">
        <path
           inkscape:connector-curvature="0"
           id="path146"
           style="fill:#71a8db;fill-opacity:1;fill-rule:nonzero;stroke:none"
           d="m 0,0 c -4.413,7.39 -8.826,14.781 -13.265,22.213 0.56,0 1.078,-0.04 1.587,0.011 0.531,0.053 0.797,-0.138 1.06,-0.585 1.879,-3.202 3.797,-6.384 5.7,-9.573 1.887,-3.16 3.772,-6.32 5.658,-9.481 0.654,-1.094 1.309,-2.188 1.962,-3.282 0.061,-0.1 0.118,-0.202 0.194,-0.332 h -25.469 c 0.197,0.322 0.384,0.628 0.57,0.933 0.018,-0.002 0.034,-0.004 0.052,-0.005 1.437,-0.007 2.875,-0.003 4.312,-0.003 5.846,0.001 11.693,-0.003 17.537,0.002 C -0.041,-0.093 0.017,-0.081 0,0" />
      </g>
      <g
         transform="translate(655.8379,671.793)"
         id="g148">
        <path
           inkscape:connector-curvature="0"
           id="path150"
           style="fill:#648943;fill-opacity:1;fill-rule:nonzero;stroke:none"
           d="M 0,0 C 0.047,-0.076 0.076,-0.117 0.099,-0.161 0.25,-0.451 0.574,-0.714 0.54,-1.018 0.507,-1.315 0.239,-1.59 0.071,-1.873 -0.98,-3.632 -2.034,-5.391 -3.087,-7.15 c -1.074,-1.795 -2.15,-3.59 -3.222,-5.387 -1.097,-1.84 -2.19,-3.683 -3.286,-5.524 -0.224,-0.377 -0.458,-0.749 -0.679,-1.127 -0.153,-0.262 -0.147,-0.266 0.152,-0.267 0.06,0 0.121,0 0.182,0 8.473,0 16.947,0 25.42,-0.002 0.108,0 0.258,0.056 0.314,-0.043 0.06,-0.109 -0.065,-0.212 -0.123,-0.31 -0.222,-0.378 -0.46,-0.748 -0.67,-1.132 -0.091,-0.166 -0.196,-0.218 -0.385,-0.217 -2.815,0.005 -5.632,0.004 -8.447,0.004 h -18.402 c -0.062,0 -0.122,0.003 -0.183,-10e-4 -0.169,-0.012 -0.222,0.016 -0.116,0.186 0.295,0.472 0.571,0.956 0.856,1.434 1.216,2.036 2.432,4.071 3.648,6.105 1.536,2.571 3.075,5.14 4.609,7.712 1.094,1.833 2.183,3.669 3.274,5.503 C -0.106,-0.151 -0.062,-0.09 0,0" />
      </g>
      <g
         transform="translate(665.9922,664.207)"
         id="g152">
        <path
           inkscape:connector-curvature="0"
           id="path154"
           style="fill:#e06c75;fill-opacity:1;fill-rule:nonzero;stroke:none"
           d="m 0,0 h 3.098 c -4.446,7.446 -8.869,14.856 -13.319,22.309 0.646,0 1.248,-0.023 1.848,0.008 0.332,0.018 0.502,-0.092 0.664,-0.366 1.675,-2.832 3.365,-5.657 5.053,-8.483 C -0.749,10.273 1.16,7.078 3.069,3.883 4,2.325 4.93,0.768 5.859,-0.791 5.885,-0.832 5.903,-0.877 5.927,-0.922 5.846,-0.982 5.766,-0.956 5.693,-0.956 4.064,-0.958 2.436,-0.955 0.808,-0.962 c -0.18,0 -0.285,0.048 -0.366,0.205 C 0.315,-0.512 0.165,-0.279 0,0" />
      </g>
      <g
         transform="translate(642.6523,650.9492)"
         id="g156">
        <path
           inkscape:connector-curvature="0"
           id="path158"
           style="fill:#99c379;fill-opacity:1;fill-rule:nonzero;stroke:none"
           d="m 0,0 c -0.306,0.512 -0.566,1.003 -0.884,1.458 -0.227,0.326 -0.206,0.572 -0.002,0.908 1.829,3.028 3.637,6.067 5.45,9.103 1.549,2.594 3.096,5.19 4.644,7.785 1.077,1.805 2.155,3.608 3.234,5.413 0.047,0.079 0.1,0.155 0.166,0.26 0.082,-0.129 0.156,-0.238 0.223,-0.35 0.806,-1.348 1.61,-2.696 2.414,-4.044 0.033,-0.055 0.087,-0.104 0.041,-0.18 -0.175,-0.286 -0.347,-0.574 -0.538,-0.893 -0.532,0.888 -1.041,1.739 -1.566,2.615 C 8.783,14.708 4.402,7.373 0,0" />
      </g>
      <g
         transform="translate(656.3262,660.3369)"
         id="g160">
        <path
           inkscape:connector-curvature="0"
           id="path162"
           style="fill:#457396;fill-opacity:1;fill-rule:nonzero;stroke:none"
           d="m 0,0 c -0.515,-0.865 -1.007,-1.693 -1.503,-2.528 0.125,-0.06 0.229,-0.035 0.328,-0.035 8.527,-10e-4 17.053,-10e-4 25.579,-10e-4 0.377,0 0.381,-0.002 0.199,-0.313 -0.244,-0.415 -0.497,-0.824 -0.74,-1.239 -0.063,-0.108 -0.143,-0.162 -0.271,-0.152 -0.052,0.004 -0.104,10e-4 -0.155,10e-4 -8.935,0 -17.869,0 -26.802,0.001 -0.101,0 -0.243,-0.05 -0.293,0.032 -0.059,0.097 0.06,0.193 0.114,0.284 0.746,1.254 1.497,2.506 2.237,3.763 0.086,0.146 0.182,0.197 0.35,0.19 C -0.656,-0.009 -0.354,0 0,0" />
      </g>
      <g
         transform="translate(671.9512,652.9419)"
         id="g164">
        <path
           inkscape:connector-curvature="0"
           id="path166"
           style="fill:#99c379;fill-opacity:1;fill-rule:nonzero;stroke:none"
           d="m 0,0 h -0.298 -24.798 c -0.356,0 -0.321,-0.013 -0.191,0.301 0.222,0.539 0.583,0.68 1.184,0.678 6.975,-0.024 13.951,-0.016 20.925,-0.016 h 0.346 c -0.282,0.476 -0.537,0.92 -0.809,1.354 -0.104,0.168 -0.097,0.219 0.122,0.215 0.615,-0.009 1.23,-0.003 1.845,-0.003 0.104,0 0.196,0.008 0.264,-0.107 C -0.957,1.651 -0.495,0.884 -0.037,0.116 -0.021,0.089 -0.018,0.056 0,0" />
      </g>
      <g
         transform="translate(676.2676,660.0283)"
         id="g168">
        <path
           inkscape:connector-curvature="0"
           id="path170"
           style="fill:#71a8db;fill-opacity:1;fill-rule:nonzero;stroke:none"
           d="m 0,0 c -0.397,0.656 -0.799,1.31 -1.192,1.969 -1.824,3.05 -3.645,6.1 -5.466,9.152 -1.415,2.369 -2.829,4.74 -4.243,7.109 -0.038,0.065 -0.08,0.127 -0.133,0.209 -0.275,-0.459 -0.539,-0.898 -0.822,-1.371 -0.376,0.627 -0.733,1.225 -1.092,1.821 -0.04,0.067 -0.035,0.122 0.004,0.186 0.438,0.73 0.875,1.461 1.326,2.215 0.238,-0.289 0.386,-0.598 0.56,-0.89 1.682,-2.81 3.359,-5.623 5.037,-8.435 C -4.108,8.762 -2.194,5.56 -0.283,2.356 0.184,1.574 0.645,0.789 1.107,0.004 0.738,-0.038 0.369,-0.029 0,0" />
      </g>
      <g
         transform="translate(655.7998,682.1104)"
         id="g172">
        <path
           inkscape:connector-curvature="0"
           id="path174"
           style="fill:#a14651;fill-opacity:1;fill-rule:nonzero;stroke:none"
           d="m 0,0 c 0.191,-0.321 0.359,-0.611 0.535,-0.896 0.069,-0.111 0.006,-0.193 -0.045,-0.278 -0.734,-1.231 -1.471,-2.461 -2.207,-3.692 -0.764,-1.282 -1.526,-2.566 -2.292,-3.848 -0.865,-1.449 -1.731,-2.896 -2.597,-4.344 -0.866,-1.447 -1.732,-2.895 -2.595,-4.344 -0.372,-0.623 -0.731,-1.254 -1.112,-1.871 -0.124,-0.2 -0.033,-0.197 0.129,-0.194 0.278,0.005 0.554,-0.001 0.831,0.002 0.128,0.002 0.157,-0.041 0.092,-0.148 -0.293,-0.483 -0.586,-0.966 -0.876,-1.451 -0.051,-0.087 -0.124,-0.104 -0.216,-0.104 -0.684,10e-4 -1.369,0.004 -2.053,-0.001 -0.198,-0.002 -0.199,0.071 -0.116,0.209 0.828,1.382 1.654,2.765 2.481,4.148 0.883,1.476 1.767,2.952 2.649,4.43 1.113,1.861 2.223,3.722 3.334,5.584 1.12,1.876 2.238,3.752 3.357,5.629 C -0.478,-0.793 -0.251,-0.418 0,0" />
      </g>
      <g
         transform="translate(608.49192,662.12455)"
         id="g176">
        <path
           inkscape:connector-curvature="0"
           id="path178"
           style="fill:#282d35;fill-opacity:1;fill-rule:nonzero;stroke:none"
           d="m 0,0 c -0.333,-0.559 -0.657,-1.118 -0.999,-1.667 -0.09,-0.143 -0.081,-0.24 0.004,-0.379 0.492,-0.806 0.978,-1.616 1.452,-2.433 0.101,-0.174 0.214,-0.218 0.408,-0.218 4.36,0.006 8.718,0.002 13.076,0.011 0.267,0 0.43,-0.056 0.54,-0.3 0.098,-0.219 0.243,-0.418 0.389,-0.664 h -0.287 -18.12 c -0.311,0 -0.311,0.001 -0.159,0.255 1.02,1.709 2.049,3.414 3.053,5.131 C -0.484,0.006 -0.304,0.072 0,0" />
      </g>
      <g
         transform="translate(660.459,674.3037)"
         id="g180">
        <path
           inkscape:connector-curvature="0"
           id="path182"
           style="fill:#0796c4;fill-opacity:1;fill-rule:nonzero;stroke:none"
           d="m 0,0 c 0.253,-0.422 0.444,-0.831 0.72,-1.178 0.404,-0.509 0.348,-0.92 0.009,-1.466 -1.363,-2.195 -2.666,-4.425 -3.985,-6.646 -0.089,-0.15 -0.191,-0.202 -0.369,-0.199 -0.658,0.01 -1.316,0.004 -2.037,0.004 C -3.77,-6.315 -1.896,-3.178 0,0" />
      </g>
      <g
         transform="translate(599.7728,675.47877)"
         id="g184">
        <path
           inkscape:connector-curvature="0"
           id="path186"
           style="fill:#282d35;fill-opacity:1;fill-rule:nonzero;stroke:none"
           d="M 0,0 C 3.125,-5.234 6.229,-10.434 9.354,-15.667 H 9.136 c -2.201,0 -4.402,10e-4 -6.603,0 -0.145,-10e-4 -0.281,-0.005 -0.302,0.214 H 3.31 c 0.433,0 0.866,0.005 1.299,-0.003 0.129,-0.002 0.203,0.037 0.267,0.145 0.54,0.915 1.081,1.83 1.633,2.738 0.08,0.131 0.032,0.214 -0.03,0.317 -0.984,1.651 -1.966,3.304 -2.953,4.954 -1.288,2.158 -2.578,4.315 -3.87,6.47 -0.052,0.087 -0.075,0.153 -0.011,0.247 C -0.238,-0.41 -0.136,-0.226 0,0" />
      </g>
      <g
         transform="translate(662.3379,669.0977)"
         id="g188">
        <path
           inkscape:connector-curvature="0"
           id="path190"
           style="fill:#99c379;fill-opacity:1;fill-rule:nonzero;stroke:none"
           d="m 0,0 c 1.806,-3.025 3.615,-6.055 5.445,-9.121 -0.763,0 -1.479,0.001 -2.195,-10e-4 -0.113,-10e-4 -0.141,0.083 -0.182,0.153 -0.817,1.367 -1.634,2.737 -2.451,4.105 -0.549,0.92 -1.094,1.842 -1.651,2.757 -0.1,0.164 -0.116,0.284 -0.009,0.454 0.32,0.506 0.619,1.025 0.928,1.538 C -0.091,-0.073 -0.079,-0.019 0,0" />
      </g>
      <g
         transform="translate(656.8145,660.9429)"
         id="g192">
        <path
           inkscape:connector-curvature="0"
           id="path194"
           style="fill:#a14651;fill-opacity:1;fill-rule:nonzero;stroke:none"
           d="m 0,0 c -1.74,0 -3.48,0 -5.221,0 -0.308,0 -0.31,0.003 -0.159,0.258 0.253,0.428 0.515,0.852 0.762,1.283 0.067,0.119 0.141,0.164 0.282,0.164 C -1.461,1.701 1.413,1.701 4.288,1.704 4.422,1.704 4.51,1.675 4.58,1.552 4.84,1.098 5.104,0.647 5.384,0.205 5.51,0.006 5.431,-0.002 5.248,-0.002 3.499,0.001 1.75,0 0,0" />
      </g>
      <g
         transform="translate(611.62018,660.6369)"
         id="g196">
        <path
           inkscape:connector-curvature="0"
           id="path198"
           style="fill:#282d35;fill-opacity:1;fill-rule:nonzero;stroke:none"
           d="m 0,0 c 3.144,5.264 6.249,10.466 9.371,15.695 0.307,-0.509 0.601,-0.995 0.893,-1.483 0.782,-1.31 1.556,-2.625 2.351,-3.927 0.163,-0.267 -0.095,-0.365 -0.177,-0.556 -0.352,0.588 -0.734,1.16 -1.044,1.768 -0.207,0.405 -0.459,0.554 -0.933,0.529 C 9.605,11.981 8.746,12.01 7.889,12.017 7.739,12.018 7.661,11.972 7.587,11.846 5.27,7.957 2.946,4.071 0.633,0.181 0.477,-0.082 0.256,0.071 0,0" />
      </g>
      <g
         transform="translate(657.8115,664.8125)"
         id="g200">
        <path
           inkscape:connector-curvature="0"
           id="path202"
           style="fill:#457396;fill-opacity:1;fill-rule:nonzero;stroke:none"
           d="M 0,0 C 0.747,1.255 1.462,2.458 2.179,3.659 2.792,4.687 3.407,5.713 4.024,6.739 4.061,6.799 4.067,6.907 4.16,6.899 4.239,6.892 4.263,6.795 4.302,6.731 4.341,6.666 4.364,6.588 4.415,6.535 4.771,6.162 4.694,5.825 4.437,5.407 3.374,3.685 2.351,1.94 1.317,0.201 1.229,0.054 1.131,-0.014 0.948,-0.004 0.649,0.012 0.349,0 0,0" />
      </g>
      <g
         transform="translate(658.3369,671.9751)"
         id="g204">
        <path
           inkscape:connector-curvature="0"
           id="path206"
           style="fill:#99c379;fill-opacity:1;fill-rule:nonzero;stroke:none"
           d="M 0,0 C -0.298,0.496 -0.576,0.955 -0.852,1.417 -1.37,2.286 -1.885,3.159 -2.408,4.026 -2.5,4.179 -2.506,4.236 -2.292,4.233 -1.669,4.223 -1.045,4.226 -0.421,4.232 -0.29,4.233 -0.217,4.188 -0.153,4.082 0.246,3.406 0.651,2.734 1.055,2.06 1.097,1.989 1.153,1.922 1.098,1.83 0.737,1.232 0.379,0.633 0,0" />
      </g>
      <g
         transform="translate(660.9307,663.2622)"
         id="g208">
        <path
           inkscape:connector-curvature="0"
           id="path210"
           style="fill:#e06c75;fill-opacity:1;fill-rule:nonzero;stroke:none"
           d="m 0,0 h -8.27 c 0.183,0.304 0.353,0.582 0.516,0.864 0.069,0.119 0.18,0.081 0.276,0.081 1.568,0.002 3.135,0.002 4.703,0.002 0.667,0 1.334,-0.005 2,0.003 0.16,0.003 0.252,-0.045 0.325,-0.182 C -0.316,0.517 -0.163,0.275 0,0" />
      </g>
      <g
         transform="translate(664.7676,659.9761)"
         id="g212">
        <path
           inkscape:connector-curvature="0"
           id="path214"
           style="fill:#99c379;fill-opacity:1;fill-rule:nonzero;stroke:none"
           d="m 0,0 c -0.366,0 -0.678,0.008 -0.989,-0.003 -0.144,-0.005 -0.192,0.075 -0.25,0.172 -0.79,1.326 -1.582,2.649 -2.374,3.974 -0.273,0.456 -0.541,0.914 -0.821,1.366 -0.076,0.122 -0.088,0.219 -10e-4,0.341 0.17,0.238 0.28,0.516 0.488,0.76 C -2.634,4.41 -1.33,2.227 0,0" />
      </g>
      <g
         transform="translate(652.0566,656.4033)"
         id="g216">
        <path
           inkscape:connector-curvature="0"
           id="path218"
           style="fill:#0796c4;fill-opacity:1;fill-rule:nonzero;stroke:none"
           d="M 0,0 C -0.166,0.27 -0.315,0.51 -0.461,0.753 -0.66,1.086 -0.853,1.424 -1.057,1.754 -1.12,1.857 -1.137,1.932 -1.066,2.046 -0.721,2.607 -0.385,3.173 -0.055,3.742 0.026,3.881 0.113,3.944 0.289,3.941 0.955,3.929 1.622,3.936 2.35,3.936 1.56,2.613 0.79,1.324 0,0" />
      </g>
      <g
         transform="translate(671.668,662.6279)"
         id="g220">
        <path
           inkscape:connector-curvature="0"
           id="path222"
           style="fill:#a14651;fill-opacity:1;fill-rule:nonzero;stroke:none"
           d="m 0,0 c -0.318,-0.536 -0.617,-1.034 -0.909,-1.536 -0.07,-0.12 -0.16,-0.152 -0.295,-0.151 -0.78,0.004 -1.56,0.003 -2.34,0 -0.111,0 -0.199,0.014 -0.261,0.119 -0.3,0.515 -0.607,1.028 -0.926,1.568 z" />
      </g>
      <g
         transform="translate(632.34234,643.54049)"
         id="g224">
        <path
           inkscape:connector-curvature="0"
           id="path226"
           style="fill:#282d35;fill-opacity:1;fill-rule:nonzero;stroke:none"
           d="m 0,0 c -0.37,-0.124 -0.537,0.042 -0.696,0.313 -0.834,1.424 -1.677,2.843 -2.54,4.251 -0.168,0.274 -0.18,0.477 0.08,0.719 C -2.105,3.524 -1.057,1.768 0,0" />
      </g>
      <g
         transform="translate(630.25102,652.03213)"
         id="g228">
        <path
           inkscape:connector-curvature="0"
           id="path230"
           style="fill:#282d35;fill-opacity:1;fill-rule:nonzero;stroke:none"
           d="M 0,0 C 1.057,1.771 2.107,3.533 3.161,5.297 3.448,5.026 3.453,4.975 3.268,4.667 2.389,3.199 1.503,1.734 0.642,0.256 0.483,-0.015 0.308,-0.082 0,0" />
      </g>
      <g
         transform="translate(656.877,659.9868)"
         id="g232">
        <path
           inkscape:connector-curvature="0"
           id="path234"
           style="fill:#282d35;fill-opacity:1;fill-rule:nonzero;stroke:none"
           d="M 0,0 C 0.034,0.167 0.128,0.206 0.281,0.206 2.092,0.201 3.903,0.201 5.714,0.205 5.868,0.206 5.96,0.164 5.987,0 Z" />
      </g>
      <g
         transform="translate(678.4775,659.4336)"
         id="g236">
        <path
           inkscape:connector-curvature="0"
           id="path238"
           style="fill:#02546d;fill-opacity:1;fill-rule:nonzero;stroke:none"
           d="m 0,0 c 0.044,-0.021 0.04,-0.06 0.042,-0.097 -0.067,-0.056 -0.149,-0.03 -0.225,-0.03 -7.236,-0.001 -14.473,-0.001 -21.711,-0.001 -0.034,0 -0.069,0.001 -0.103,0.004 -0.008,0.008 -0.009,0.018 -0.006,0.028 0.099,0.081 0.217,0.04 0.324,0.04 7.12,0.002 14.241,0.002 21.362,0.004 0.105,0 0.226,-0.047 0.317,0.052" />
      </g>
      <g
         transform="translate(668.0273,654.5137)"
         id="g240">
        <path
           inkscape:connector-curvature="0"
           id="path242"
           style="fill:#99c379;fill-opacity:1;fill-rule:nonzero;stroke:none"
           d="m 0,0 c -0.365,0 -0.677,0 -0.988,0 -0.068,0 -0.143,-0.013 -0.186,0.059 -0.17,0.287 -0.34,0.574 -0.532,0.898 0.377,0 0.703,-0.001 1.03,0.001 0.079,0 0.125,-0.036 0.163,-0.101 C -0.352,0.583 -0.187,0.312 0,0" />
      </g>
      <g
         transform="translate(665.252,677.2271)"
         id="g244">
        <path
           inkscape:connector-curvature="0"
           id="path246"
           style="fill:#457396;fill-opacity:1;fill-rule:nonzero;stroke:none"
           d="M 0,0 C 0.182,-0.31 0.354,-0.605 0.529,-0.9 0.562,-0.957 0.562,-1.009 0.527,-1.064 0.396,-1.277 0.268,-1.49 0.116,-1.739 c -0.195,0.33 -0.369,0.624 -0.543,0.918 -0.027,0.045 -0.042,0.094 -0.009,0.141 0.151,0.211 0.23,0.465 0.436,0.68" />
      </g>
      <g
         transform="translate(646.4453,663.2222)"
         id="g248">
        <path
           inkscape:connector-curvature="0"
           id="path250"
           style="fill:#e06c75;fill-opacity:1;fill-rule:nonzero;stroke:none"
           d="m 0,0 c 0.204,0.345 0.356,0.626 0.533,0.892 0.132,0.197 0.35,0.051 0.58,0.11 C 0.913,0.667 0.76,0.36 0.557,0.088 0.446,-0.06 0.231,0.064 0,0" />
      </g>
      <g
         transform="translate(676.2676,660.0283)"
         id="g252">
        <path
           inkscape:connector-curvature="0"
           id="path254"
           style="fill:#01a1d2;fill-opacity:1;fill-rule:nonzero;stroke:none"
           d="M 0,0 1.107,0.004 C 1.131,-0.022 1.113,-0.046 1.09,-0.045 0.727,-0.027 0.359,-0.113 0,0" />
      </g>
      <g
         transform="translate(659.876,665.0308)"
         id="g256">
        <path
           inkscape:connector-curvature="0"
           id="path258"
           style="fill:#282d35;fill-opacity:1;fill-rule:nonzero;stroke:none"
           d="M 0,0 C 0.037,-0.075 0.149,-0.12 0.064,-0.208 0.042,-0.232 -0.059,-0.229 -0.079,-0.204 -0.152,-0.114 -0.065,-0.065 0,0" />
      </g>
      <g
         transform="translate(656.4805,659.3096)"
         id="g260">
        <path
           inkscape:connector-curvature="0"
           id="path262"
           style="fill:#059bcb;fill-opacity:1;fill-rule:nonzero;stroke:none"
           d="M 0,0 C 0.111,0.007 0.224,0.019 0.335,0.019 7.457,0.02 14.58,0.02 21.702,0.02 c 0.112,0 0.225,0.005 0.337,0.007 -0.07,-0.093 -0.174,-0.056 -0.264,-0.056 C 14.602,-0.03 7.427,-0.03 0.253,-0.029 0.168,-0.029 0.079,-0.051 0,0" />
      </g>
    </g>
  </g>
</svg>
